<?xml version="1.0" encoding="utf-8"?>
<!-- Generator: Adobe Illustrator 24.1.3, SVG Export Plug-In . SVG Version: 6.00 Build 0)  -->
<svg version="1.1" id="Layer_1" xmlns="http://www.w3.org/2000/svg" xmlns:xlink="http://www.w3.org/1999/xlink" x="0px" y="0px"
	 viewBox="0 0 1229.2 473.5" style="enable-background:new 0 0 1229.2 473.5;" xml:space="preserve">
<style type="text/css">
	.st0{fill:#00B45E;}
</style>
<path class="st0" d="M975.2,149.1V0h30.1v128.2C996.9,132.4,985.6,140.4,975.2,149.1z M922.9,194c9.3-11.3,18.7-22.6,30.1-32.2V0
	h-30.1V194z M574.3,312.6c0,39.7,15.5,77.6,44,106.5c28.2,28.7,65.5,44.7,104.9,44.7c16.7,0,33.8-3.5,45.8-9.6v-30.6
	c-14.1,6.1-31.2,9.6-45.8,9.6c-64.3,0-118.5-55-118.5-120.4v-27.5c0-65.4,54.4-120.4,118.5-120.4c31.9,0,61.8,12.5,84,35
	c22.2,22.6,34.5,52.9,34.5,85.4V464h30.1V279.4c-1.9-39-18.3-75.5-46.1-102.8c-28-27.3-64.3-42.3-102.5-42.3
	c-39.1,0-76.4,15.8-104.9,44.7c-28.2,28.7-44,66.6-44,106.5V312.6L574.3,312.6z M1024.7,239.2c13.7-13.9,31.2-21.6,48.6-21.6
	c37.3,0,66.2,29.6,66.2,67.3v27.5c0,37.9-29.2,67.3-66.2,67.3c-18.1,0-35.4-10.1-49.1-28.2c-12-16-19.9-37.9-21.1-57.4l-24.3,30.6
	c4.9,23,16.7,45.4,33.6,60.9c17.4,16,39.1,24.9,60.9,24.9c53.2,0,96.5-44,96.5-97.8v-27.5c0-25.6-10.2-50.1-28.7-68.7
	c-18.5-18.8-42.6-29.2-67.8-29.2c-16,0-41.2,5.9-71.3,33.4c-8.1,8.2-27.1,27.5-38.7,41.2c-19.4,21.6-47.5,53.9-71.5,86.6v47.7
	c26.6-34.8,41.9-54.3,67.1-83.7C981.2,285.5,1009,253.3,1024.7,239.2L1024.7,239.2z M313.6,181.6v-36.2
	c-27.3-14.8-56.9-21.4-96.3-21.4c-40.3,0-78.5,15.1-107.4,42.1c-29.2,27.3-45.1,63-45.1,101.1v9.9c0,79,62.3,143.2,139.1,143.2
	c62.3,0,88-20.7,94.4-27.3v-92H196.5v30.6h73.6v46.1h-0.2c-9.5,3.8-29.2,11.8-66,11.8c-29.2,0-56.7-11.5-77.1-32.7
	c-20.6-21.2-31.7-49.4-31.7-80V267c0-60.9,56-112.7,122.4-112.7C263.2,154.5,290.5,162.3,313.6,181.6L313.6,181.6z M533.1,217.6
	c11.3,0,21.1,1.9,28.9,5.6c3.7-9.4,7.6-17.4,13.2-26.8c-8.1-5.9-27.8-9.6-42.1-9.6c-54.9,0-96.3,42.1-96.3,98.1v178.8h30.1V284.8
	C466.9,245.3,494,217.6,533.1,217.6L533.1,217.6z M12.5,267.2v9.9c0,53.2,19.9,102.5,55.8,139.5c35.9,36.7,84,56.9,135.4,56.9
	c41.4,0,78-9.4,109-28.2c25.5-15.5,36.8-31,37.7-32.5V248.1H196.5v30.6h123.8v124.9c-14.6,14.8-49.1,39.5-116.4,39.5
	c-44,0-84.7-17.2-114.8-48.2c-29.9-30.8-46.3-72.7-46.3-117.6v-9.9c0-42.6,18.7-84.9,51.6-116.2c33.6-32,77.3-49.6,123.1-49.6
	c42.8,0,72.5,6.6,96.3,21.4V88.4c-25-10.8-54.9-15.5-96.5-15.5C106.2,72.9,12.5,161.8,12.5,267.2z M819.2,463.6V284.8
	c0-55-42.4-98.1-96.5-98.1c-25.2,0-49.3,10.3-67.8,29.2c-18.5,18.8-28.7,43.3-28.7,68.7v27.5c0,53.2,44.2,97.8,96.3,97.8
	c14.4,0,33.8-3.5,45.8-13.6v-31.8c-11.8,9.6-28.7,15.3-45.8,15.3c-37,0-66.2-29.6-66.2-67.3v-27.5c0-37.9,29.2-67.3,66.2-67.3
	c37.3,0,66.2,29.6,66.2,67.3v178.8h30.6L819.2,463.6z M533.1,164.4c20.4,0,38.2,4.5,54.2,13.6c7.4-9.6,15-17.2,20.8-23
	c-16.9-13.2-45.6-21.2-74.8-21.2c-41.9,0-79.9,15.3-106.9,43.3c-26.9,27.5-41.7,65.9-41.7,108v178.8h30.1V285.1
	C414.6,214,463.2,164.4,533.1,164.4L533.1,164.4z M1178.2,178.5c-28.2-28.7-65.5-44.7-104.9-44.7c-28.7,0-57.4,10.8-73.4,21.6
	c-32.9,22.1-59.7,46.3-108.3,110.1v45.9c41.2-54.6,80.1-97.4,109.7-121.1c19.4-15.8,47-25.6,72-25.6c64.3,0,118.5,55.3,118.5,120.4
	v27.5c0,32.2-12.5,62.6-35.2,85.4c-22.5,22.6-52.1,35-83.3,35c-52.8,0-99.3-36.9-111.8-87l-21.3,26.1
	c15.5,52.7,71.5,91.5,133.1,91.5c39.3,0,76.4-16,104.9-44.7c28.2-28.9,44-66.6,44-106.5v-27.5
	C1222.2,245.1,1206.4,207.2,1178.2,178.5L1178.2,178.5z"/>
</svg>
