<?xml version="1.0" encoding="utf-8"?>
<!-- Generator: Adobe Illustrator 19.0.0, SVG Export Plug-In . SVG Version: 6.00 Build 0)  -->
<svg version="1.1" id="Layer_1" xmlns="http://www.w3.org/2000/svg" xmlns:xlink="http://www.w3.org/1999/xlink" x="0px" y="0px"
	 viewBox="-373.7 357.5 370.2 82" style="enable-background:new -373.7 357.5 370.2 82;" xml:space="preserve">
<style type="text/css">
	.st0{fill:#323232;}
	.st1{fill:#333333;}
</style>
<g id="XMLID_1_">
	<path id="XMLID_23_" class="st0" d="M-183.1,383.2c3.3,3.4,4.9,8.4,4.9,15V425h-5.8v-26.4c0-4.9-1.2-8.7-3.5-11.4
		c-2.4-2.6-5.6-4-9.7-4c-4.4,0-7.9,1.5-10.5,4.4s-3.9,7.2-3.9,12.9V425h-5.8v-26.4c0-4.9-1.2-8.7-3.5-11.4c-2.4-2.6-5.6-4-9.7-4
		c-4.4,0-7.9,1.5-10.5,4.4s-3.9,7.2-3.9,12.9V425h-5.9v-46h5.9v11c1.1-3.9,3.1-6.8,6-8.8s6.3-3,10.1-3c4,0,7.4,1.1,10.3,3.2
		c2.9,2.1,4.9,5.3,6,9.4c1.2-4.1,3.4-7.2,6.4-9.4c3.1-2.2,6.5-3.2,10.4-3.2C-190.5,378.1-186.3,379.8-183.1,383.2z"/>
	<path id="XMLID_61_" class="st0" d="M-166,362.3c0.8-0.7,1.8-1.1,3.1-1.1s2.3,0.4,3.1,1.1c0.8,0.7,1.2,1.7,1.2,3
		c0,1.2-0.4,2.1-1.2,2.9c-0.8,0.7-1.8,1.1-3.1,1.1s-2.3-0.4-3.1-1.1c-0.8-0.7-1.2-1.7-1.2-2.9C-167.3,364.1-166.9,363.1-166,362.3z
		 M-160,379v46h-5.9v-46H-160z"/>
	<path id="XMLID_64_" class="st0" d="M-116.3,382c3.3,2.4,5.5,5.6,6.6,9.6v-29h5.8V425h-5.8v-12.7c-1.2,4-3.4,7.2-6.6,9.6
		c-3.3,2.4-7.2,3.6-11.8,3.6c-4.1,0-7.8-1-11-2.9c-3.3-1.9-5.8-4.7-7.6-8.2c-1.8-3.6-2.7-7.7-2.7-12.5s0.9-9,2.7-12.6
		c1.8-3.6,4.3-6.3,7.5-8.2c3.2-1.9,6.9-2.8,11.1-2.8C-123.5,378.4-119.6,379.6-116.3,382z M-138.9,388.5c-3.1,3.3-4.6,7.8-4.6,13.5
		s1.5,10.2,4.6,13.5s7.2,4.9,12.3,4.9c3.2,0,6.1-0.8,8.7-2.3s4.6-3.7,6.1-6.5c1.5-2.8,2.2-6,2.2-9.7s-0.7-6.9-2.2-9.7
		c-1.5-2.8-3.5-4.9-6.1-6.5c-2.6-1.6-5.5-2.3-8.7-2.3C-131.8,383.6-135.9,385.2-138.9,388.5z"/>
	<path id="XMLID_67_" class="st0" d="M-60.2,382c3.3,2.4,5.5,5.6,6.7,9.6V379h5.8v46h-5.8v-12.7c-1.2,4-3.5,7.2-6.7,9.6
		c-3.3,2.4-7.2,3.6-11.8,3.6c-4.1,0-7.8-1-11-2.9c-3.3-1.9-5.8-4.7-7.6-8.2c-1.8-3.6-2.7-7.7-2.7-12.5s0.9-9,2.7-12.6
		c1.8-3.6,4.3-6.3,7.5-8.2c3.2-1.9,6.9-2.8,11.1-2.8C-67.4,378.4-63.5,379.6-60.2,382z M-82.8,388.5c-3.1,3.3-4.6,7.8-4.6,13.5
		s1.5,10.2,4.6,13.5s7.2,4.9,12.3,4.9c3.2,0,6.1-0.8,8.7-2.3c2.6-1.5,4.6-3.7,6.1-6.5c1.5-2.8,2.2-6,2.2-9.7s-0.7-6.9-2.2-9.7
		c-1.5-2.8-3.5-4.9-6.1-6.5c-2.6-1.6-5.5-2.3-8.7-2.3C-75.6,383.6-79.7,385.2-82.8,388.5z"/>
	<path id="XMLID_70_" class="st0" d="M-9.4,382.3c3,2.6,4.8,6.2,5.5,10.7h-5.6c-0.3-3-1.5-5.4-3.6-7.4s-4.9-2.9-8.4-2.9
		c-3,0-5.4,0.7-7,2.2c-1.7,1.5-2.5,3.5-2.5,5.9c0,1.9,0.5,3.3,1.6,4.5c1.1,1.1,2.4,2,4,2.6s3.8,1.2,6.5,1.8c3.3,0.8,6,1.6,8,2.4
		c2,0.8,3.8,2.1,5.2,3.8c1.4,1.7,2.2,4.1,2.2,7.1c0,3.7-1.3,6.7-4,9s-6.3,3.5-10.7,3.5c-5.2,0-9.5-1.3-12.8-3.9s-5.3-6.2-5.9-10.8
		h5.7c0.3,3,1.6,5.5,3.9,7.4c2.3,1.9,5.4,2.9,9.3,2.9c2.9,0,5.1-0.8,6.8-2.3c1.6-1.5,2.4-3.5,2.4-5.9c0-2-0.6-3.5-1.7-4.7
		c-1.1-1.2-2.5-2.1-4.1-2.7c-1.6-0.6-3.9-1.2-6.7-1.9c-3.3-0.8-5.9-1.6-7.9-2.4c-2-0.8-3.7-2-5-3.7c-1.4-1.7-2.1-3.9-2.1-6.8
		c0-3.8,1.4-6.8,4.1-9.1c2.7-2.3,6.4-3.5,11.1-3.5C-16.4,378.4-12.4,379.7-9.4,382.3z"/>
</g>
<g id="XMLID_4_">
	<path id="XMLID_20_" class="st1" d="M-358.7,393.1l19.2,18.8c2.8,2.7,6.6,4.3,10.5,4.3c0.1,0,0.1,0,0.2,0c4,0,7.8-1.7,10.6-4.5
		l16.9-17.3v30.2h-57.4V393.1 M-286.3,357.5l-42.7,43.7l-44.7-43.7v82h87.3L-286.3,357.5L-286.3,357.5z"/>
</g>
</svg>
